<svg xmlns="http://www.w3.org/2000/svg"  viewBox="0 0 50 50" width="50px" height="50px"><path d="M 3 0 C 1.355469 0 0 1.355469 0 3 L 0 47 C 0 48.644531 1.355469 50 3 50 L 47 50 C 48.644531 50 50 48.644531 50 47 L 50 3 C 50 1.355469 48.644531 0 47 0 Z M 3 2 L 47 2 C 47.554688 2 48 2.445313 48 3 L 48 47 C 48 47.554688 47.554688 48 47 48 L 3 48 C 2.445313 48 2 47.554688 2 47 L 2 3 C 2 2.445313 2.445313 2 3 2 Z M 24.90625 7.96875 C 24.863281 7.976563 24.820313 7.988281 24.78125 8 C 24.316406 8.105469 23.988281 8.523438 24 9 L 24 12.5625 L 22.71875 11.28125 C 22.511719 11.058594 22.210938 10.945313 21.90625 10.96875 C 21.863281 10.976563 21.820313 10.988281 21.78125 11 C 21.40625 11.066406 21.105469 11.339844 21 11.703125 C 20.894531 12.070313 21.003906 12.460938 21.28125 12.71875 L 24 15.4375 L 24 23.28125 L 17.15625 19.34375 L 16.15625 15.65625 C 16.050781 15.179688 15.613281 14.847656 15.125 14.875 C 15.09375 14.875 15.0625 14.875 15.03125 14.875 C 14.742188 14.917969 14.488281 15.082031 14.332031 15.328125 C 14.175781 15.574219 14.132813 15.878906 14.21875 16.15625 L 14.71875 17.90625 L 11.59375 16.125 C 11.394531 16.007813 11.164063 15.964844 10.9375 16 C 10.503906 16.054688 10.160156 16.382813 10.078125 16.8125 C 10 17.242188 10.210938 17.671875 10.59375 17.875 L 13.6875 19.65625 L 11.9375 20.125 C 11.402344 20.273438 11.085938 20.824219 11.234375 21.359375 C 11.382813 21.894531 11.933594 22.210938 12.46875 22.0625 L 16.15625 21.0625 L 22.96875 25 L 16.15625 28.9375 L 12.46875 27.9375 C 12.378906 27.902344 12.285156 27.882813 12.1875 27.875 C 12.113281 27.878906 12.039063 27.886719 11.96875 27.90625 C 11.492188 27.984375 11.136719 28.394531 11.128906 28.878906 C 11.121094 29.363281 11.460938 29.78125 11.9375 29.875 L 13.6875 30.34375 L 10.59375 32.125 C 10.109375 32.402344 9.941406 33.015625 10.21875 33.5 C 10.496094 33.984375 11.109375 34.152344 11.59375 33.875 L 14.71875 32.09375 L 14.21875 33.84375 C 14.082031 34.378906 14.402344 34.925781 14.9375 35.0625 C 15.472656 35.199219 16.019531 34.878906 16.15625 34.34375 L 17.15625 30.65625 L 24 26.75 L 24 34.5625 L 21.28125 37.28125 C 20.882813 37.679688 20.882813 38.320313 21.28125 38.71875 C 21.679688 39.117188 22.320313 39.117188 22.71875 38.71875 L 24 37.4375 L 24 41 C 23.996094 41.359375 24.183594 41.695313 24.496094 41.878906 C 24.808594 42.058594 25.191406 42.058594 25.503906 41.878906 C 25.816406 41.695313 26.003906 41.359375 26 41 L 26 37.4375 L 27.28125 38.71875 C 27.679688 39.117188 28.320313 39.117188 28.71875 38.71875 C 29.117188 38.320313 29.117188 37.679688 28.71875 37.28125 L 26 34.5625 L 26 26.71875 L 32.84375 30.65625 L 33.84375 34.34375 C 33.980469 34.878906 34.527344 35.199219 35.0625 35.0625 C 35.597656 34.925781 35.917969 34.378906 35.78125 33.84375 L 35.28125 32.09375 L 38.40625 33.875 C 38.890625 34.152344 39.503906 33.984375 39.78125 33.5 C 40.058594 33.015625 39.890625 32.402344 39.40625 32.125 L 36.3125 30.34375 L 38.0625 29.875 C 38.613281 29.789063 38.992188 29.269531 38.90625 28.71875 C 38.820313 28.167969 38.300781 27.789063 37.75 27.875 C 37.695313 27.882813 37.644531 27.890625 37.59375 27.90625 C 37.574219 27.914063 37.550781 27.925781 37.53125 27.9375 L 33.84375 28.9375 L 27 25 L 33.84375 21.0625 L 37.53125 22.0625 C 38.066406 22.210938 38.617188 21.894531 38.765625 21.359375 C 38.914063 20.824219 38.597656 20.273438 38.0625 20.125 L 36.3125 19.65625 L 39.40625 17.875 C 39.875 17.675781 40.121094 17.160156 39.976563 16.671875 C 39.832031 16.183594 39.34375 15.878906 38.84375 15.96875 C 38.8125 15.976563 38.78125 15.988281 38.75 16 C 38.628906 16.019531 38.511719 16.0625 38.40625 16.125 L 35.28125 17.90625 L 35.78125 16.15625 C 35.875 15.839844 35.808594 15.5 35.601563 15.246094 C 35.394531 14.988281 35.078125 14.851563 34.75 14.875 C 34.71875 14.875 34.6875 14.875 34.65625 14.875 C 34.25 14.945313 33.929688 15.253906 33.84375 15.65625 L 32.84375 19.34375 L 26 23.25 L 26 15.4375 L 28.71875 12.71875 C 29.117188 12.320313 29.117188 11.679688 28.71875 11.28125 C 28.320313 10.882813 27.679688 10.882813 27.28125 11.28125 L 26 12.5625 L 26 9 C 26.011719 8.710938 25.894531 8.433594 25.6875 8.238281 C 25.476563 8.039063 25.191406 7.941406 24.90625 7.96875 Z"/></svg>