<svg xmlns="http://www.w3.org/2000/svg"  viewBox="0 0 64 64" width="64px" height="64px"><path d="M60,21.06a1,1,0,0,0,1-1V13.54a1,1,0,0,0-1-1H56.74c-.12-6.38,1.08-5.16-5.28-5.28V4a1,1,0,0,0-1-1H43.94a1,1,0,0,0-1,1V7.26H21.06V4a1,1,0,0,0-1-1H13.54a1,1,0,0,0-1,1V7.26c-6.38.12-5.16-1.08-5.28,5.28H4a1,1,0,0,0-1,1v6.52a1,1,0,0,0,1,1H7.26V42.94H4a1,1,0,0,0-1,1v6.52a1,1,0,0,0,1,1H7.26c.12,6.38-1.08,5.16,5.28,5.28V60a1,1,0,0,0,1,1h6.52a1,1,0,0,0,1-1V56.74H42.94V60a1,1,0,0,0,1,1h6.52a1,1,0,0,0,1-1V56.74c6.38-.12,5.16,1.08,5.28-5.28H60a1,1,0,0,0,1-1V43.94a1,1,0,0,0-1-1H56.74V21.06Zm-1-6.52v4.52H56.74V14.54ZM43.94,54.74H42.49v-7a19.14,19.14,0,0,0,2.75-2.23v9.2Zm-23.88,0h-1.3v-9.2a19.91,19.91,0,0,0,1.92,1.63,1,1,0,0,0,.37.27c.15.11.3.23.46.33v7Zm-6,0V37.94a19,19,0,0,0,2.75,5.28V54.74Zm6-45.48h1.45v7a19.14,19.14,0,0,0-2.75,2.23V9.26Zm23.88,0h1.3v9.2a19.69,19.69,0,0,0-1.91-1.62,1,1,0,0,0-.41-.31c-.15-.1-.28-.21-.43-.3v-7Zm6.05,0v16.8a19,19,0,0,0-2.75-5.28V9.26ZM49,32a16.75,16.75,0,0,1-1.88,7.73,11.81,11.81,0,0,0-10.61-8.62,4.39,4.39,0,0,0-.53-1.47,9.82,9.82,0,0,1,12.85.07A17.26,17.26,0,0,1,49,32ZM37.18,48.14a11.82,11.82,0,0,0-1.5-13.73,4.56,4.56,0,0,0,.64-1.31,9.83,9.83,0,0,1,9.17,9.13A17.08,17.08,0,0,1,37.18,48.14ZM32,49a16.83,16.83,0,0,1-7.74-1.88A11.79,11.79,0,0,0,32.9,36.19a4,4,0,0,0,1.27-.47,9.83,9.83,0,0,1,.12,13.06A17.11,17.11,0,0,1,32,49ZM15.86,37.18a11.77,11.77,0,0,0,13.84-1.6,4.22,4.22,0,0,0,1.21.52,9.84,9.84,0,0,1-9.14,9.39A17.08,17.08,0,0,1,15.86,37.18ZM15.05,32a16.75,16.75,0,0,1,1.88-7.73A11.81,11.81,0,0,0,27.75,32.9a4.57,4.57,0,0,0,.54,1.26,9.82,9.82,0,0,1-13.07.13A17.26,17.26,0,0,1,15.05,32ZM26.82,15.86a11.8,11.8,0,0,0,1.44,13.66,4.66,4.66,0,0,0-.56,1.38,9.83,9.83,0,0,1-9.19-9.13A17.08,17.08,0,0,1,26.82,15.86ZM32,15.05a16.83,16.83,0,0,1,7.74,1.88,11.81,11.81,0,0,0-8.62,10.53,4.41,4.41,0,0,0-1.46.62,9.81,9.81,0,0,1,.06-12.86A17.11,17.11,0,0,1,32,15.05ZM48.14,26.82A11.81,11.81,0,0,0,34.6,28.15a4.35,4.35,0,0,0-1.49-.66,9.84,9.84,0,0,1,9.12-9A17.08,17.08,0,0,1,48.14,26.82ZM32.07,34.28a2.46,2.46,0,0,1,0-4.92A2.46,2.46,0,0,1,32.07,34.28Zm8.42-19.2a20,20,0,0,0-2.74-1.14V9.26h2.74Zm-4.74-1.66A19.13,19.13,0,0,0,33,13.1V9.26h2.75ZM31,13.1c-.59,0-1.18.09-1.75.17a1.27,1.27,0,0,0-.34.05l-.66.1V9.26H31Zm-4.75.84a20,20,0,0,0-2.74,1.14V9.26h2.74Zm-9.49,6.8a.84.84,0,0,0-.18.28,19.18,19.18,0,0,0-2.57,5V9.26h2.75Zm6.75,28.18a20,20,0,0,0,2.74,1.14v4.68H23.51Zm4.74,1.66A19.13,19.13,0,0,0,31,50.9v3.84H28.25ZM33,50.9a16.53,16.53,0,0,0,1.74-.17.69.69,0,0,0,.37-.06c.21,0,.43-.05.64-.09v4.16H33Zm4.75-.84a20,20,0,0,0,2.74-1.14v5.82H37.75Zm9.49-6.8a.84.84,0,0,0,.18-.28,19.18,19.18,0,0,0,2.57-5v16.8H47.24ZM44.94,5h4.52V7.26H44.94ZM14.54,5h4.52V7.26H14.54ZM5,19.06V14.54H7.26v4.52Zm0,30.4V44.94H7.26v4.52Zm4.26,1V9.26H12V54.74H9.26ZM19.06,59H14.54V56.74h4.52Zm30.4,0H44.94V56.74h4.52Zm5.28-4.26H52V9.26h2.75ZM59,44.94v4.52H56.74V44.94Z"/></svg>