<svg xmlns="http://www.w3.org/2000/svg"  viewBox="0 0 50 50" width="50px" height="50px"><path d="M 2.78125 2 C 2.34375 2.074219 2.007813 2.429688 1.957031 2.871094 C 1.910156 3.3125 2.152344 3.734375 2.5625 3.90625 L 24 14.625 L 24 17.375 L 23.375 17.0625 C 23.34375 17.050781 23.3125 17.039063 23.28125 17.03125 L 3.4375 7.09375 C 2.9375 6.851563 2.335938 7.0625 2.09375 7.5625 C 1.851563 8.0625 2.0625 8.664063 2.5625 8.90625 L 22 18.625 L 22 46 L 3 46 C 2.640625 45.996094 2.304688 46.183594 2.121094 46.496094 C 1.941406 46.808594 1.941406 47.191406 2.121094 47.503906 C 2.304688 47.816406 2.640625 48.003906 3 48 L 23 48 C 23.550781 48 24 47.550781 24 47 L 24 19.625 L 24.5625 19.90625 C 24.875 20.058594 25.242188 20.039063 25.535156 19.851563 C 25.824219 19.667969 26.003906 19.347656 26 19 L 26 14 C 26.003906 13.613281 25.785156 13.261719 25.4375 13.09375 L 3.4375 2.09375 C 3.261719 2.007813 3.066406 1.976563 2.875 2 C 2.84375 2 2.8125 2 2.78125 2 Z M 35.8125 16 C 35.335938 16.089844 34.992188 16.511719 35 17 L 35 28.9375 C 33.234375 30.40625 32 32.527344 32 35 C 32 39.40625 35.59375 43 40 43 C 44.40625 43 48 39.40625 48 35 C 48 32.527344 46.765625 30.40625 45 28.9375 L 45 25 L 47 25 C 47.359375 25.003906 47.695313 24.816406 47.878906 24.503906 C 48.058594 24.191406 48.058594 23.808594 47.878906 23.496094 C 47.695313 23.183594 47.359375 22.996094 47 23 L 45 23 L 45 21 L 47 21 C 47.359375 21.003906 47.695313 20.816406 47.878906 20.503906 C 48.058594 20.191406 48.058594 19.808594 47.878906 19.496094 C 47.695313 19.183594 47.359375 18.996094 47 19 L 45 19 L 45 17 C 45 16.449219 44.550781 16 44 16 L 36 16 C 35.96875 16 35.9375 16 35.90625 16 C 35.875 16 35.84375 16 35.8125 16 Z M 37 18 L 43 18 L 43 19.53125 C 42.867188 19.808594 42.867188 20.128906 43 20.40625 L 43 23.53125 C 42.867188 23.808594 42.867188 24.128906 43 24.40625 L 43 29.25 C 42.996094 29.585938 43.160156 29.902344 43.4375 30.09375 C 44.992188 31.179688 46 32.953125 46 35 C 46 38.324219 43.324219 41 40 41 C 36.675781 41 34 38.324219 34 35 C 34 32.953125 35.007813 31.179688 36.5625 30.09375 C 36.839844 29.902344 37.003906 29.585938 37 29.25 Z M 39 22 L 39 31.15625 C 37.277344 31.601563 36 33.136719 36 35 C 36 37.210938 37.789063 39 40 39 C 42.210938 39 44 37.210938 44 35 C 44 33.136719 42.722656 31.601563 41 31.15625 L 41 22 Z"/></svg>