<svg xmlns="http://www.w3.org/2000/svg"  viewBox="0 0 50 50" width="50px" height="50px"><path d="M 9 4 C 6.2504839 4 4 6.2504839 4 9 L 4 41 C 4 43.749516 6.2504839 46 9 46 L 41 46 C 43.749516 46 46 43.749516 46 41 L 46 9 C 46 6.2504839 43.749516 4 41 4 L 9 4 z M 9 6 L 41 6 C 42.668484 6 44 7.3315161 44 9 L 44 41 C 44 42.668484 42.668484 44 41 44 L 9 44 C 7.3315161 44 6 42.668484 6 41 L 6 9 C 6 7.3315161 7.3315161 6 9 6 z M 25 12 C 17.832143 12 12 17.832143 12 25 C 12 32.167857 17.832143 38 25 38 C 32.167857 38 38 32.167857 38 25 C 38 17.832143 32.167857 12 25 12 z M 25 14 C 31.086977 14 36 18.913023 36 25 C 36 31.086977 31.086977 36 25 36 C 18.913023 36 14 31.086977 14 25 C 14 18.913023 18.913023 14 25 14 z M 20 23 A 2 2 0 0 0 18 25 A 2 2 0 0 0 20 27 A 2 2 0 0 0 22 25 A 2 2 0 0 0 20 23 z M 30 23 A 2 2 0 0 0 28 25 A 2 2 0 0 0 30 27 A 2 2 0 0 0 32 25 A 2 2 0 0 0 30 23 z"/></svg>