<svg xmlns="http://www.w3.org/2000/svg"  viewBox="0 0 50 50" width="50px" height="50px"><path d="M 29 0 C 26.467349 0 24.449924 1.2251041 23.109375 2.6601562 C 22.174491 3.660946 21.646044 4.6955258 21.333984 5.703125 C 20.132042 5.2649968 18.990022 5.0176655 18.017578 5 C 15.697665 4.9586841 13.928004 5.8904092 12.785156 6.9453125 C 12.213732 7.4727641 11.789714 8.0274863 11.496094 8.5332031 C 11.202473 9.03892 11 9.3988034 11 10 A 1.0001 1.0001 0 1 0 13 10 C 13 10.211197 13.035651 9.8659238 13.226562 9.5371094 C 13.417473 9.208295 13.724424 8.7982359 14.140625 8.4140625 C 14.973027 7.6457158 16.203335 6.9683159 17.982422 7 C 19.020496 7.018858 20.193617 7.2149724 21.552734 7.8945312 A 1.0001 1.0001 0 0 0 23 7 C 23 6.6154762 23.519064 5.1547915 24.572266 4.0273438 C 25.625467 2.8998959 27.107651 2 29 2 C 31.858198 2 33.510993 2.9250558 34.292969 3.7070312 A 1.0001 1.0001 0 0 0 35.513672 3.8574219 C 37.870756 2.4431712 39.852564 2 43 2 A 1.0001 1.0001 0 1 0 43 0 C 39.893511 0 37.50912 0.56669019 35.072266 1.8984375 C 33.79122 0.87371909 31.886418 0 29 0 z M 48.949219 4.9882812 A 1.0001 1.0001 0 0 0 48.064453 5.6484375 C 48.064453 5.6484375 47.80856 6.3791402 46.792969 7.234375 C 45.777377 8.0896098 44.044872 9 41 9 A 1.0001 1.0001 0 0 0 40.199219 9.4003906 C 40.199219 9.4003906 39.055556 11 36.5 11 C 33.944444 11 32.800781 9.4003906 32.800781 9.4003906 A 1.0003906 1.0003906 0 0 0 31.199219 10.599609 C 31.199219 10.599609 33.055556 13 36.5 13 C 39.466308 13 40.98461 11.427754 41.423828 10.933594 C 44.599756 10.834404 46.789189 9.8543343 48.082031 8.765625 C 49.44144 7.6208598 49.935547 6.3515625 49.935547 6.3515625 A 1.0001 1.0001 0 0 0 48.949219 4.9882812 z M 7 14 A 1.0001 1.0001 0 1 0 7 16 L 8 16 L 8 26 C 8 26.666667 7.5506884 28.371805 6.8144531 30.332031 C 6.0782179 32.292258 5.084777 34.585873 4.0878906 36.816406 C 3.0910042 39.04694 2.091178 41.214735 1.3339844 42.953125 C 0.95538755 43.82232 0.63701962 44.582412 0.40625 45.205078 C 0.17548038 45.827744 0 46.205411 0 46.800781 C 0 47.326972 0.30391561 47.783477 0.62695312 48.058594 C 0.94999064 48.33371 1.3150827 48.511324 1.7441406 48.671875 C 2.6022566 48.992976 3.7352832 49.22321 5.2070312 49.416016 C 8.1505275 49.801626 12.425976 50 18 50 C 23.574024 50 27.849473 49.801626 30.792969 49.416016 C 32.264717 49.22321 33.397743 48.992976 34.255859 48.671875 C 34.684917 48.511324 35.050009 48.33371 35.373047 48.058594 C 35.696084 47.783477 36 47.326972 36 46.800781 C 36 46.205411 35.82452 45.827744 35.59375 45.205078 C 35.36298 44.582412 35.044612 43.82232 34.666016 42.953125 C 33.908822 41.214735 32.908996 39.04694 31.912109 36.816406 C 30.915223 34.585873 29.921782 32.292258 29.185547 30.332031 C 28.449312 28.371805 28 26.666667 28 26 L 28 16 L 29 16 A 1.0001 1.0001 0 1 0 29 14 L 7 14 z M 10 16 L 26 16 L 26 26 C 26 27.333333 26.550688 29.001633 27.314453 31.035156 C 28.078218 33.06868 29.084777 35.388346 30.087891 37.632812 C 31.091004 39.87728 32.091178 42.046593 32.833984 43.751953 C 33.205388 44.604633 33.51202 45.342588 33.71875 45.900391 C 33.880258 46.336174 33.911779 46.522062 33.939453 46.603516 C 33.855253 46.656606 33.774253 46.714715 33.554688 46.796875 C 32.959677 47.019524 31.923955 47.251399 30.533203 47.433594 C 27.751699 47.797983 23.525976 48 18 48 C 12.474024 48 8.2483007 47.797983 5.4667969 47.433594 C 4.076045 47.251399 3.0403216 47.019524 2.4453125 46.796875 C 2.2257469 46.714715 2.1447519 46.656603 2.0605469 46.603516 C 2.0882206 46.522062 2.1197419 46.336174 2.28125 45.900391 C 2.4879804 45.342588 2.7946124 44.604633 3.1660156 43.751953 C 3.908822 42.046593 4.9089958 39.87728 5.9121094 37.632812 C 6.915223 35.388346 7.9217821 33.06868 8.6855469 31.035156 C 9.4493116 29.001633 10 27.333333 10 26 L 10 16 z M 18.318359 24 L 14.048828 33 L 18.542969 33 L 15.650391 38 L 13.75 38 L 15 42 L 20.5 38 L 17.960938 38 L 22.007812 31 L 17.210938 31 L 20.533203 24 L 18.318359 24 z"/></svg>