<svg xmlns="http://www.w3.org/2000/svg"  viewBox="0 0 50 50" width="50px" height="50px"><path d="M 24.964844 0 A 1.0001 1.0001 0 0 0 24.382812 0.21289062 L 4.421875 15.835938 L 1.3828125 18.212891 A 1.0002305 1.0002305 0 1 0 2.6171875 19.787109 L 4 18.705078 L 4 45 A 1.0001 1.0001 0 0 0 5 46 L 45 46 A 1.0001 1.0001 0 0 0 46 45 L 46 18.705078 L 47.382812 19.787109 A 1.0002308 1.0002308 0 1 0 48.617188 18.212891 L 45.632812 15.878906 L 25.617188 0.21289062 A 1.0001 1.0001 0 0 0 24.964844 0 z M 25 2.2695312 L 44 17.138672 L 44 44 L 6 44 L 6 17.138672 L 25 2.2695312 z M 14.978516 17.990234 A 1.0001 1.0001 0 0 0 14.375 19.78125 C 14.375 19.78125 15.285053 20.519632 15.746094 21.810547 C 16.207135 23.101462 16.307508 24.869272 14.232422 27.359375 C 11.807508 30.269272 11.707135 33.002243 12.371094 34.861328 C 13.035053 36.720413 14.375 37.78125 14.375 37.78125 A 1.0004882 1.0004882 0 1 0 15.625 36.21875 C 15.625 36.21875 14.714947 35.480368 14.253906 34.189453 C 13.792865 32.898538 13.692492 31.130728 15.767578 28.640625 C 18.192492 25.730728 18.292865 22.997757 17.628906 21.138672 C 16.964947 19.279587 15.625 18.21875 15.625 18.21875 A 1.0001 1.0001 0 0 0 14.978516 17.990234 z M 24.978516 17.990234 A 1.0001 1.0001 0 0 0 24.375 19.78125 C 24.375 19.78125 25.285053 20.519632 25.746094 21.810547 C 26.207135 23.101462 26.307508 24.869272 24.232422 27.359375 C 21.807508 30.269272 21.707135 33.002243 22.371094 34.861328 C 23.035053 36.720413 24.375 37.78125 24.375 37.78125 A 1.0004882 1.0004882 0 1 0 25.625 36.21875 C 25.625 36.21875 24.714947 35.480368 24.253906 34.189453 C 23.792865 32.898538 23.692492 31.130728 25.767578 28.640625 C 28.192492 25.730728 28.292865 22.997757 27.628906 21.138672 C 26.964947 19.279587 25.625 18.21875 25.625 18.21875 A 1.0001 1.0001 0 0 0 24.978516 17.990234 z M 34.978516 17.990234 A 1.0001 1.0001 0 0 0 34.375 19.78125 C 34.375 19.78125 35.285031 20.521423 35.746094 21.8125 C 36.207156 23.103577 36.307451 24.869801 34.232422 27.359375 C 31.807508 30.269272 31.707135 33.002243 32.371094 34.861328 C 33.035053 36.720413 34.375 37.78125 34.375 37.78125 A 1.0004882 1.0004882 0 1 0 35.625 36.21875 C 35.625 36.21875 34.714947 35.480368 34.253906 34.189453 C 33.792865 32.898538 33.692492 31.130728 35.767578 28.640625 C 38.192549 25.731199 38.292844 22.997844 37.628906 21.138672 C 36.964969 19.279499 35.625 18.21875 35.625 18.21875 A 1.0001 1.0001 0 0 0 34.978516 17.990234 z"/></svg>