<svg xmlns="http://www.w3.org/2000/svg"  viewBox="0 0 50 50" width="50px" height="50px"><path d="M 24.875 0 C 24.496094 0.0546875 24.179688 0.320313 24.0625 0.6875 C 24.0625 0.6875 23.699219 1.738281 23.1875 2.84375 C 22.929688 3.394531 22.628906 3.953125 22.34375 4.375 C 22.058594 4.796875 21.742188 5.035156 21.75 5.03125 C 21.765625 5.023438 21.382813 5.09375 20.875 5 C 20.367188 4.90625 19.742188 4.707031 19.15625 4.5 C 17.980469 4.089844 16.9375 3.625 16.9375 3.625 C 16.566406 3.457031 16.128906 3.527344 15.832031 3.8125 C 15.535156 4.09375 15.441406 4.527344 15.59375 4.90625 C 15.59375 4.90625 16.046875 5.9375 16.4375 7.125 C 16.632813 7.71875 16.804688 8.34375 16.90625 8.875 C 16.996094 9.339844 17.011719 9.664063 17 9.78125 C 16.910156 9.859375 16.742188 9.992188 16.53125 10.125 C 16.109375 10.394531 15.523438 10.707031 14.9375 11 C 13.761719 11.585938 12.59375 12.0625 12.59375 12.0625 C 12.203125 12.214844 11.949219 12.59375 11.957031 13.011719 C 11.964844 13.429688 12.230469 13.796875 12.625 13.9375 C 12.625 13.9375 13.746094 14.375 14.875 14.9375 C 14.917969 14.957031 14.957031 14.980469 15 15 L 8.375 15 C 7.09375 15 5.960938 15.855469 5.625 17.09375 L 0.09375 37.53125 C -0.015625 37.9375 0 38.21875 0 38.21875 C 0 38.238281 0 38.261719 0 38.28125 L 0 40.15625 C 0 41.722656 1.277344 43 2.84375 43 L 20 43 L 20 44 L 18 44 C 16.355469 44 15 45.355469 15 47 L 15 49 C 15 49.550781 15.449219 50 16 50 L 34 50 C 34.550781 50 35 49.550781 35 49 L 35 47 C 35 45.355469 33.644531 44 32 44 L 30 44 L 30 43 L 47.15625 43 C 48.4375 43 49.34375 42.21875 49.6875 41.5 C 50.015625 40.8125 50.003906 40.210938 50 40.15625 C 50 40.152344 50 40.09375 50 40.09375 L 50 38.46875 C 50 38.453125 50 38.421875 50 38.40625 C 50 38.363281 50.003906 38.296875 50 38.25 C 49.996094 38.152344 49.984375 38.035156 49.96875 37.90625 C 49.945313 37.703125 49.914063 37.464844 49.8125 37.1875 L 49.75 37 L 44.375 17.09375 C 44.039063 15.855469 42.90625 15 41.625 15 L 35.03125 15 C 35.054688 14.988281 35.070313 14.980469 35.09375 14.96875 C 36.253906 14.390625 37.375 13.9375 37.375 13.9375 C 37.765625 13.785156 38.019531 13.40625 38.011719 12.988281 C 38.003906 12.570313 37.738281 12.203125 37.34375 12.0625 C 37.34375 12.0625 36.3125 11.660156 35.21875 11.125 C 34.671875 10.859375 34.09375 10.554688 33.6875 10.28125 C 33.398438 10.085938 33.191406 9.875 33.125 9.8125 C 33.109375 9.777344 33.105469 9.765625 33.125 9.78125 C 33.015625 9.4375 33.15625 8.140625 33.53125 7.03125 C 33.914063 5.902344 34.375 4.96875 34.375 4.96875 C 34.585938 4.574219 34.511719 4.089844 34.195313 3.777344 C 33.875 3.46875 33.386719 3.40625 33 3.625 C 33 3.625 32.039063 4.167969 30.9375 4.59375 C 30.386719 4.808594 29.808594 4.976563 29.34375 5.0625 C 28.878906 5.148438 28.546875 5.070313 28.59375 5.09375 C 28.550781 5.070313 28.222656 4.757813 27.90625 4.3125 C 27.589844 3.867188 27.265625 3.304688 26.96875 2.75 C 26.375 1.640625 25.90625 0.59375 25.90625 0.59375 C 25.730469 0.191406 25.3125 -0.0507813 24.875 0 Z M 25.09375 3.46875 C 25.152344 3.578125 25.128906 3.574219 25.1875 3.6875 C 25.507813 4.289063 25.886719 4.945313 26.28125 5.5 C 26.675781 6.054688 27.039063 6.546875 27.65625 6.875 C 28.359375 7.25 29.054688 7.152344 29.71875 7.03125 C 30.359375 6.914063 30.992188 6.699219 31.59375 6.46875 C 31.167969 7.726563 30.710938 9.1875 31.25 10.5625 C 31.53125 11.28125 32.058594 11.578125 32.59375 11.9375 C 33.128906 12.296875 33.746094 12.644531 34.34375 12.9375 C 34.457031 12.992188 34.453125 12.980469 34.5625 13.03125 C 34.382813 13.117188 34.375 13.09375 34.1875 13.1875 C 33.570313 13.492188 32.96875 13.816406 32.4375 14.15625 C 32.171875 14.324219 31.902344 14.5 31.6875 14.6875 C 31.578125 14.78125 31.46875 14.878906 31.375 15 L 30.65625 15 C 30.878906 14.371094 31 13.707031 31 13 C 31 9.699219 28.300781 7 25 7 C 21.699219 7 19 9.699219 19 13 C 19 13.695313 19.09375 14.375 19.3125 15 L 18.46875 15 C 18.382813 14.890625 18.308594 14.773438 18.21875 14.6875 C 18.003906 14.480469 17.761719 14.300781 17.5 14.125 C 16.976563 13.773438 16.359375 13.457031 15.75 13.15625 C 15.5625 13.0625 15.558594 13.085938 15.375 13 C 15.601563 12.890625 15.605469 12.902344 15.84375 12.78125 C 16.464844 12.46875 17.097656 12.148438 17.625 11.8125 C 17.886719 11.644531 18.101563 11.464844 18.3125 11.28125 C 18.523438 11.097656 18.765625 10.949219 18.90625 10.46875 C 19.101563 9.792969 19.003906 9.167969 18.875 8.5 C 18.746094 7.832031 18.558594 7.144531 18.34375 6.5 C 18.3125 6.398438 18.316406 6.410156 18.28125 6.3125 C 18.394531 6.355469 18.382813 6.363281 18.5 6.40625 C 19.148438 6.632813 19.824219 6.847656 20.5 6.96875 C 21.175781 7.089844 21.824219 7.175781 22.53125 6.875 C 23.226563 6.578125 23.621094 6.0625 24 5.5 C 24.378906 4.9375 24.714844 4.300781 25 3.6875 C 25.054688 3.574219 25.042969 3.582031 25.09375 3.46875 Z M 25 9 C 27.21875 9 29 10.78125 29 13 C 29 13.632813 28.851563 14.222656 28.59375 14.75 C 28.550781 14.828125 28.519531 14.914063 28.5 15 L 21.5 15 C 21.476563 14.921875 21.445313 14.851563 21.40625 14.78125 C 21.136719 14.242188 21 13.644531 21 13 C 21 10.78125 22.78125 9 25 9 Z M 8.375 17 L 41.625 17 C 42.007813 17 42.335938 17.246094 42.4375 17.625 L 47.875 37.71875 C 47.882813 37.761719 47.894531 37.804688 47.90625 37.84375 C 47.898438 37.847656 47.953125 38.027344 47.96875 38.15625 C 47.980469 38.242188 47.996094 38.3125 48 38.375 C 48 38.40625 48 38.425781 48 38.4375 C 48 38.449219 48 38.457031 48 38.46875 L 48 40.15625 C 48 40.167969 48 40.175781 48 40.1875 C 48 40.1875 47.976563 40.414063 47.875 40.625 C 47.773438 40.835938 47.789063 41 47.15625 41 L 21.1875 41 C 21.054688 40.972656 20.914063 40.972656 20.78125 41 L 2.84375 41 C 2.375 41 2 40.636719 2 40.15625 L 2 38.28125 C 2.015625 38.183594 2.046875 37.996094 2.03125 38.0625 L 7.5625 17.625 C 7.664063 17.246094 7.992188 17 8.375 17 Z M 10 18.96875 C 9.9375 18.972656 9.875 18.984375 9.8125 19 C 9.679688 19.027344 9.550781 19.078125 9.4375 19.15625 C 9.328125 19.222656 9.234375 19.304688 9.15625 19.40625 C 9.15625 19.417969 9.15625 19.425781 9.15625 19.4375 C 9.027344 19.617188 8.960938 19.839844 8.96875 20.0625 L 5.09375 36.5 C 4.996094 36.671875 4.953125 36.867188 4.96875 37.0625 C 4.949219 37.421875 5.125 37.765625 5.429688 37.960938 C 5.734375 38.15625 6.117188 38.167969 6.4375 38 L 43.5625 38 C 43.890625 38.160156 44.277344 38.132813 44.578125 37.925781 C 44.875 37.714844 45.039063 37.363281 45 37 C 45 36.988281 45 36.980469 45 36.96875 C 45 36.9375 45 36.90625 45 36.875 C 44.984375 36.765625 44.953125 36.660156 44.90625 36.5625 L 41 19.875 C 40.984375 19.742188 40.941406 19.617188 40.875 19.5 C 40.867188 19.480469 40.855469 19.457031 40.84375 19.4375 C 40.832031 19.425781 40.824219 19.417969 40.8125 19.40625 C 40.804688 19.386719 40.792969 19.363281 40.78125 19.34375 C 40.769531 19.34375 40.761719 19.34375 40.75 19.34375 C 40.738281 19.332031 40.730469 19.324219 40.71875 19.3125 C 40.664063 19.253906 40.601563 19.199219 40.53125 19.15625 C 40.511719 19.132813 40.492188 19.113281 40.46875 19.09375 C 40.457031 19.09375 40.449219 19.09375 40.4375 19.09375 C 40.417969 19.082031 40.394531 19.070313 40.375 19.0625 C 40.363281 19.0625 40.355469 19.0625 40.34375 19.0625 C 40.324219 19.050781 40.300781 19.039063 40.28125 19.03125 C 40.269531 19.03125 40.261719 19.03125 40.25 19.03125 C 40.167969 19.011719 40.085938 19 40 19 L 32.6875 19 C 32.554688 18.972656 32.414063 18.972656 32.28125 19 L 25.1875 19 C 25.054688 18.972656 24.914063 18.972656 24.78125 19 L 17.625 19 C 17.519531 18.984375 17.417969 18.984375 17.3125 19 L 10.09375 19 C 10.0625 18.988281 10.03125 18.976563 10 18.96875 Z M 10.78125 21 L 16.375 21 L 15.65625 27 L 9.375 27 Z M 18.40625 21 L 24 21 L 24 27 L 17.6875 27 Z M 26 21 L 31.59375 21 L 32.3125 27 L 26 27 Z M 33.625 21 L 39.21875 21 L 40.625 27 L 34.34375 27 Z M 8.90625 29 L 15.4375 29 L 14.59375 36 L 7.25 36 Z M 17.46875 29 L 24 29 L 24 36 L 16.625 36 Z M 26 29 L 32.53125 29 L 33.375 36 L 26 36 Z M 34.5625 29 L 41.09375 29 L 42.75 36 L 35.40625 36 Z M 22 43 L 28 43 L 28 45 C 28 45.550781 28.449219 46 29 46 L 32 46 C 32.566406 46 33 46.433594 33 47 L 33 48 L 17 48 L 17 47 C 17 46.433594 17.433594 46 18 46 L 21 46 C 21.550781 46 22 45.550781 22 45 Z"/></svg>