<svg xmlns="http://www.w3.org/2000/svg"  viewBox="0 0 50 50" width="50px" height="50px"><path d="M 12.1875 -0.03125 C 12.144531 -0.0234375 12.101563 -0.0117188 12.0625 0 C 11.765625 0.0664063 11.511719 0.261719 11.378906 0.539063 C 11.246094 0.8125 11.242188 1.132813 11.375 1.40625 C 12.636719 4.335938 11.636719 5.746094 10.75 7.75 C 10.308594 8.753906 9.875 9.898438 10 11.25 C 10.125 12.601563 10.8125 14.03125 12.25 15.65625 C 12.472656 15.960938 12.847656 16.113281 13.222656 16.050781 C 13.59375 15.988281 13.898438 15.71875 14.011719 15.359375 C 14.121094 15 14.019531 14.605469 13.75 14.34375 C 12.488281 12.917969 12.074219 11.894531 12 11.0625 C 11.925781 10.230469 12.1875 9.484375 12.59375 8.5625 C 13.410156 6.71875 14.757813 4.164063 13.21875 0.59375 C 13.054688 0.179688 12.632813 -0.078125 12.1875 -0.03125 Z M 24.1875 -0.03125 C 24.144531 -0.0234375 24.101563 -0.0117188 24.0625 0 C 23.765625 0.0664063 23.511719 0.261719 23.378906 0.539063 C 23.246094 0.8125 23.242188 1.132813 23.375 1.40625 C 24.636719 4.335938 23.636719 5.746094 22.75 7.75 C 22.308594 8.753906 21.875 9.898438 22 11.25 C 22.125 12.601563 22.8125 14.03125 24.25 15.65625 C 24.46875 15.964844 24.84375 16.121094 25.21875 16.0625 C 25.351563 16.035156 25.480469 15.984375 25.59375 15.90625 C 25.675781 15.855469 25.75 15.792969 25.8125 15.71875 C 25.835938 15.6875 25.855469 15.65625 25.875 15.625 C 26.148438 15.222656 26.097656 14.683594 25.75 14.34375 C 25.433594 13.988281 25.1875 13.652344 24.96875 13.34375 C 24.75 13.035156 24.574219 12.738281 24.4375 12.46875 C 24.167969 11.929688 24.039063 11.476563 24 11.0625 C 23.925781 10.230469 24.1875 9.484375 24.59375 8.5625 C 25.410156 6.71875 26.757813 4.164063 25.21875 0.59375 C 25.125 0.378906 24.960938 0.199219 24.75 0.09375 C 24.691406 0.0546875 24.628906 0.0234375 24.5625 0 C 24.441406 -0.0351563 24.3125 -0.0429688 24.1875 -0.03125 Z M 37.1875 -0.03125 C 37.144531 -0.0234375 37.101563 -0.0117188 37.0625 0 C 36.765625 0.0664063 36.511719 0.261719 36.378906 0.539063 C 36.246094 0.8125 36.242188 1.132813 36.375 1.40625 C 37.636719 4.335938 36.636719 5.746094 35.75 7.75 C 35.308594 8.753906 34.875 9.898438 35 11.25 C 35.125 12.601563 35.8125 14.03125 37.25 15.65625 C 37.472656 15.960938 37.847656 16.113281 38.222656 16.050781 C 38.59375 15.988281 38.898438 15.71875 39.011719 15.359375 C 39.121094 15 39.019531 14.605469 38.75 14.34375 C 37.488281 12.917969 37.074219 11.894531 37 11.0625 C 36.925781 10.230469 37.1875 9.484375 37.59375 8.5625 C 38.410156 6.71875 39.757813 4.164063 38.21875 0.59375 C 38.054688 0.179688 37.632813 -0.078125 37.1875 -0.03125 Z M 3 20 C 1.355469 20 0 21.355469 0 23 C 0 24.292969 0.84375 25.394531 2 25.8125 L 2 37 C 2 39.472656 3.058594 41.53125 4.71875 42.90625 C 5.667969 43.691406 6.816406 44.25 8.0625 44.59375 C 8.015625 44.722656 7.992188 44.863281 8 45 L 8 46 C 8 47.191406 7.191406 48 6 48 L 5 48 C 4.640625 47.996094 4.304688 48.183594 4.121094 48.496094 C 3.941406 48.808594 3.941406 49.191406 4.121094 49.503906 C 4.304688 49.816406 4.640625 50.003906 5 50 L 6 50 C 8.210938 50 10 48.210938 10 46 L 10 45 C 10 44.988281 10 44.980469 10 44.96875 C 10.332031 44.996094 10.65625 45 11 45 L 39 45 C 39.34375 45 39.667969 44.996094 40 44.96875 C 40 44.980469 40 44.988281 40 45 L 40 46 C 40 48.210938 41.789063 50 44 50 L 45 50 C 45.359375 50.003906 45.695313 49.816406 45.878906 49.503906 C 46.058594 49.191406 46.058594 48.808594 45.878906 48.496094 C 45.695313 48.183594 45.359375 47.996094 45 48 L 44 48 C 42.808594 48 42 47.191406 42 46 L 42 45 C 42.007813 44.863281 41.984375 44.722656 41.9375 44.59375 C 43.183594 44.25 44.332031 43.691406 45.28125 42.90625 C 46.941406 41.53125 48 39.472656 48 37 L 48 25.8125 C 49.15625 25.394531 50 24.292969 50 23 C 50 21.355469 48.644531 20 47 20 Z M 3 22 L 47 22 C 47.554688 22 48 22.445313 48 23 C 48 23.554688 47.554688 24 47 24 L 3.1875 24 C 3.085938 23.972656 2.980469 23.960938 2.875 23.96875 C 2.386719 23.902344 2 23.507813 2 23 C 2 22.445313 2.445313 22 3 22 Z M 4 26 L 46 26 L 46 37 C 46 38.925781 45.238281 40.351563 44 41.375 C 42.761719 42.398438 41.003906 43 39 43 L 11 43 C 8.996094 43 7.238281 42.398438 6 41.375 C 4.761719 40.351563 4 38.925781 4 37 Z"/></svg>